<svg width="940" height="888" viewBox="0 0 940 888" fill="none" xmlns="http://www.w3.org/2000/svg">
<path d="M582.554 730.006C559.854 731.133 537.866 728.517 515.714 724.752C510.398 723.81 506.198 719.795 506.338 712.89C506.677 692.942 493.439 682.244 484.702 668.846C478.634 659.467 469.373 658.633 460.133 664.417C450.812 670.2 440.511 671.479 431.396 666.234C416.716 657.65 401.174 656.26 385.549 654.488C370.73 652.809 357.346 646.618 344.034 637.837C349.967 629.859 356.174 632.333 361.81 632.411C369.539 632.482 378.156 633.318 383.608 626.204C395.475 610.823 407.344 596.401 426.668 597.011C427.393 597.009 428.195 595.951 428.836 595.182C436.854 584.512 447.153 582.753 458.427 583.485C462.373 583.76 468.17 584.125 470.014 581.434C477.386 570.574 487.22 574.379 496.314 573.103C494.61 569.081 492.826 564.963 491.123 560.941C484.682 560.865 478.16 560.694 471.719 560.523C468.173 559.671 464.628 558.819 461.164 557.967C461.241 556.816 461.237 555.665 461.313 554.418C461.394 554.418 461.394 554.418 461.474 554.418L461.313 554.323C466.627 554.497 471.862 554.96 477.174 554.56C478.06 554.461 484.431 557.989 480.865 550.616C478.913 544.389 474.325 544.5 469.896 544.226L469.895 544.034C464.065 533.6 453.834 531.427 445.683 525.315C441.72 519.574 436.953 514.315 435.962 506.454C424.607 505.339 412.767 503.938 401.497 504.262C412.767 503.938 424.607 505.435 435.962 506.454C436.035 504.056 436.108 501.755 436.181 499.357C436.837 477.586 449.367 468.34 464.158 461.389C468.907 460.798 473.412 459.729 476.447 452.24C471.218 453.311 467.356 454.091 463.494 454.966C456.329 454.893 449.243 454.723 442.078 454.65C439.42 454.563 436.683 454.475 434.026 454.388C427.985 453.544 422.03 454.33 417.213 458.565C403.323 470.788 388.829 470.067 372.792 465.035C356.835 460.099 339.991 454.398 323.974 455.792C306.589 457.381 290.078 455.42 273.244 452.884C259.551 450.817 246.187 451.147 235.764 464.606C232.224 465.385 226.5 463.005 226.359 469.431C226.219 475.856 232.009 473.92 235.554 474.772C259.815 483.326 284.606 481.713 309.32 480.676L310.688 480.671L312.056 480.379C322.843 480.057 333.627 478.681 344.337 479.51C368.577 481.351 368.498 481.831 374.642 489.866C365.053 487.212 355.315 488.393 347.501 487.076C331.552 484.345 316.103 487.175 300.726 487.32C273.837 487.693 248.06 483.075 221.954 476.637C194.156 469.725 167.273 471.92 146.834 500.37C149.009 500.747 151.184 501.219 153.44 501.692C151.264 501.219 149.089 500.842 146.834 500.37C130.932 512.887 112.59 517.069 94.6547 522.975C90.3102 523.948 89.8403 528.073 89.2895 532.103C85.2081 539.883 89.5684 543.897 94.7228 544.456C108.413 545.755 118.83 555.504 130.444 562.084C141.978 568.664 153.577 570.546 165.556 565.042C174.881 560.793 183.817 560.572 192.929 565.147C198.009 567.624 203.326 568.47 208.797 567.398C194.744 553.633 179.898 543.419 164.179 536.948C179.898 543.323 194.744 553.633 208.797 567.398C210.004 567.202 211.211 567.007 212.418 566.811C210.874 562.405 208.85 558.767 206.425 555.61C208.85 558.671 210.874 562.309 212.418 566.811C228.031 565.131 243.731 565.177 259.509 564.744C254.022 560.925 248.303 559.793 242.981 557.316C235.967 554.078 226.234 556.794 222.735 545.201C222.735 545.201 222.735 545.201 222.816 545.201C222.816 545.201 222.816 545.201 222.815 545.105C226.603 546.34 230.471 547.382 234.179 548.905C256.348 558.137 278.73 557.97 301.17 550.994C304.955 551.366 308.822 552.217 312.031 548.85C329.977 546.396 345.883 535.413 363.584 531.713C363.667 532.767 363.671 533.918 363.755 534.973C349.449 542.882 334.171 548.588 318.884 551.801C304.402 554.82 291.322 568.479 275.277 560.954C274.148 560.382 272.621 561.058 271.253 561.35C268.92 561.837 266.911 562.994 266.518 566.16C266.125 569.23 267.663 571.718 269.919 572.287C288.935 577.405 307.569 588.758 327.51 580.735C342.305 574.742 353.906 577.199 365.781 589.82C374.424 598.999 371.379 603.324 363.416 605.938C351.272 609.908 340.427 617.231 328.769 622.254C328.451 623.598 328.052 624.654 327.491 625.519C328.052 624.654 328.45 623.502 328.769 622.254L328.768 622.159C328.688 622.159 328.688 622.159 328.607 622.159C328.035 619.476 327.061 616.89 324.324 617.09C302.512 619.077 280.62 620.873 258.81 623.531C253.418 624.219 249.004 628.549 246.931 635.172C241.16 643.15 232.959 646.533 225.73 651.734C215.595 654.931 210.31 663.866 206.56 674.618C203.038 680.959 199.515 687.203 195.913 693.544C190.116 693.658 184.084 695.499 183.302 702.79C182.363 711.52 188.271 721.091 193.586 721.553C207.196 722.757 216.98 736.056 230.664 735.437C233.562 735.332 237.825 734.072 238.325 739.344C238.661 743.659 234.883 745.493 231.988 746.557C224.268 749.458 215.978 750.252 209.234 756.219C197.272 766.805 184.249 772.888 169.107 771.114C165.324 771.222 161.538 770.658 158.247 773.738C151.644 773.279 145.204 773.683 139.34 777.729C125.599 786.02 110.699 784.149 96.127 784.291C75.1921 783.495 54.337 782.506 33.4023 781.805C13.5948 781.101 -1.559 800.808 3.57566 820.546C13.3847 841.805 30.454 842.23 47.6029 842.367C55.5803 844.548 63.3213 848.359 71.6929 847.949C78.1342 848.12 84.5758 848.388 91.0171 848.559C100.842 849.295 110.823 848.688 119.779 854.797C123.41 857.279 126.8 860.145 125.852 865.998C124.984 871.563 120.796 870.905 117.337 871.875C99.7218 877.013 81.6773 873.714 63.8888 875.017C47.7069 875.164 31.443 874.832 17.7978 887.917C22.3063 887.903 26.8148 887.889 31.3233 887.874C41.7672 880.841 53.4607 887.037 64.2373 883.359C82.6792 885.026 101.2 886.31 119.545 882.704C126.867 881.242 136.121 879.775 136.809 868.169C137.341 858.194 131.122 852.076 123.862 847.496C111.68 839.767 98.7851 835.492 85.0965 834.864C79.9339 831.716 74.4642 833.268 69.0698 833.189C59.4009 830.726 49.653 828.743 40.0631 825.801C34.1802 823.998 29.0935 819.411 28.7466 811.548C28.3145 802.247 35.3947 800.787 40.783 798.947C52.6855 794.882 65.0149 798.487 77.1671 797.01C78.1329 796.911 79.0987 796.812 80.0645 796.713C81.7546 796.516 83.3642 796.319 85.0539 796.026C88.7588 796.494 92.544 796.865 96.2489 797.333C113.397 797.279 130.546 797.224 147.694 797.074C152.282 796.772 156.95 796.469 161.539 796.263C169.509 796.334 177.399 796.405 185.37 796.379C187.298 795.223 189.308 794.161 191.236 793.004C196.312 794.043 200.978 792.974 205.557 789.89C232.148 771.681 262.076 764.874 291.525 759.314C312.444 755.316 334.335 752.945 355.924 756.713C363.334 757.744 370.745 759.063 378.062 755.971C395.037 752.081 412.603 756.821 429.411 751.109C431.179 749.953 433.027 748.892 434.795 747.736C505.134 739.458 575.939 751.22 646.347 739.298C625.161 735.625 603.724 728.884 582.554 730.006ZM450.244 541.987C450.244 541.987 450.244 541.891 450.324 541.795L450.244 541.987ZM368.967 553.752C376.268 545.578 385.117 543.632 394.131 542.548C385.117 543.632 376.267 545.482 368.967 553.752C365.275 557.312 363.193 560.867 363.124 564.415C363.274 560.867 365.275 557.312 368.967 553.752ZM403.226 541.561C408.126 538.093 412.95 536.064 417.536 535.282C412.95 536.064 408.206 538.092 403.226 541.561ZM395.749 570.545C387.138 571.436 378.934 574.051 370.814 577.625C378.934 574.051 387.218 571.435 395.749 570.545ZM382.999 586.505C383.885 586.694 384.851 586.691 385.737 586.784C384.852 586.786 383.885 586.694 382.999 586.505C381.63 586.317 380.26 585.938 378.89 585.559C380.26 586.034 381.63 586.317 382.999 586.505ZM447.981 539.213C447.014 538.737 445.966 538.548 444.92 538.551C446.047 538.548 447.094 538.736 447.981 539.213ZM389.263 505.356C391.194 505.062 393.206 504.768 395.218 504.569C393.206 504.768 391.275 505.061 389.263 505.356ZM312.291 528.998C312.291 528.998 312.21 528.999 312.21 529.095L312.291 528.998ZM333.845 496.709C333.765 496.805 333.765 496.901 333.685 496.997C333.765 496.901 333.846 496.804 333.845 496.709ZM333.277 495.176C333.037 495.848 332.879 496.52 332.639 497.096C332.879 496.52 333.118 495.848 333.277 495.176ZM160.633 536C161.117 536.19 161.6 536.381 162.084 536.571C161.6 536.285 161.116 536.095 160.633 536ZM284.319 543.376C283.353 543.571 282.307 543.67 281.342 543.865C282.307 543.766 283.273 543.571 284.319 543.376ZM288.112 647.796C290.605 646.925 293.098 646.054 295.671 645.183C299.299 646.514 302.925 647.749 306.553 649.08C303.006 647.653 299.298 646.418 295.671 645.183C293.178 646.054 290.685 646.925 288.112 647.796C288.355 648.467 288.599 649.041 288.923 649.616C288.679 648.945 288.355 648.371 288.112 647.796C280.87 649.162 273.71 650.623 266.468 651.988C266.706 650.933 267.025 649.973 267.344 648.917C267.025 649.877 266.706 650.933 266.468 651.988C273.709 650.527 280.951 649.161 288.112 647.796ZM314.892 638.409C326.347 645.565 338.283 652.144 347.817 662.759C338.283 652.048 326.347 645.565 314.892 638.409ZM361.43 690.43C361.51 690.334 361.671 690.142 361.751 690.045C361.671 690.237 361.51 690.334 361.43 690.43ZM307.268 671.614C305.022 674.114 302.366 674.506 299.71 674.611C302.447 674.506 305.102 674.114 307.268 671.614ZM274.953 712.665C280.188 713.223 285.502 713.398 290.813 712.614C290.971 711.559 291.289 710.503 291.689 709.639C291.209 710.599 290.971 711.559 290.813 712.614C285.421 713.399 280.188 713.319 274.953 712.665ZM255.408 667.751C257.33 664.676 259.253 661.697 261.256 658.622C259.334 661.697 257.33 664.676 255.408 667.751ZM269.015 668.187C276.746 668.738 284.398 669.96 291.894 672.622C284.398 669.864 276.746 668.642 269.015 668.187ZM288.292 679.346C284.915 680.507 281.455 681.19 277.914 681.584C281.455 681.19 284.995 680.507 288.292 679.346ZM260.771 657.952C260.69 657.856 260.609 657.761 260.609 657.761L260.771 657.952ZM250.094 667.863C248.408 669.115 246.64 670.272 244.953 671.524C246.64 670.272 248.407 669.02 250.094 667.863ZM243.691 704.996C245.219 704.416 246.908 704.027 248.517 703.734C247.461 700.669 246.404 697.507 245.429 694.442C248.318 691.46 251.451 689.34 254.746 687.699C251.45 689.244 248.317 691.364 245.429 694.442C246.485 697.507 247.542 700.668 248.517 703.734C246.828 704.027 245.219 704.416 243.691 704.996C242.163 705.576 240.636 706.252 239.189 707.024C240.635 706.156 242.082 705.481 243.691 704.996ZM351.806 727.477C355.035 730.248 359.145 731.673 361.814 735.405C359.226 731.673 355.115 730.247 351.806 727.477ZM353.487 724.499C351.714 724.025 350.022 723.455 348.248 722.789C349.941 723.455 351.714 724.025 353.487 724.499C355.34 724.972 357.113 725.446 358.966 725.728C357.113 725.446 355.26 725.069 353.487 724.499ZM366.534 700.483C366.359 696.168 366.184 691.758 361.831 690.045C360.695 687.076 359.558 684.107 358.502 681.137C358.502 681.137 358.582 681.041 358.582 680.945C358.502 681.041 358.502 681.137 358.502 681.137C359.639 684.106 360.775 687.076 361.831 690.045C366.104 691.758 366.359 696.072 366.534 700.483ZM236.989 673.371C235.943 673.566 234.897 673.857 233.771 674.053C234.897 673.761 235.943 673.566 236.989 673.371ZM236.804 716.621C237.206 716.524 237.608 716.427 238.091 716.33C237.689 716.427 237.287 716.524 236.804 716.621C240.683 721.116 245.195 722.349 249.947 722.813C245.195 722.445 240.683 721.116 236.804 716.621ZM267.762 729.949C265.668 729.764 263.494 729.579 261.4 729.394C263.494 729.579 265.587 729.764 267.762 729.949C268.331 731.865 268.901 733.877 269.471 735.793C268.901 733.877 268.332 731.961 267.762 729.949ZM461.394 706.703C461.958 706.989 462.523 707.275 463.168 707.561C462.603 707.371 461.958 707.085 461.394 706.703ZM455.817 700.008C456.623 700.197 457.429 700.483 458.236 700.96C459.042 701.436 459.769 702.01 460.495 702.679C459.768 701.914 459.042 701.341 458.236 700.96C457.429 700.579 456.623 700.197 455.817 700.008C455.012 699.819 454.206 699.726 453.321 699.728C454.126 699.726 454.931 699.819 455.817 700.008ZM442.937 700.433C439.297 694.978 433.824 695.571 428.909 694.244C433.824 695.667 439.377 694.978 442.937 700.433ZM419.728 693.41C421.74 693.212 423.672 693.014 425.684 692.911C423.672 693.11 421.74 693.212 419.728 693.41ZM222.857 710.816L223.258 710.335C223.098 710.623 222.857 710.816 222.857 710.816ZM226.406 712.914C226.005 713.395 225.685 713.876 225.284 714.356C225.605 713.972 226.006 713.491 226.406 712.914ZM447.075 735.806C447.72 736.187 448.446 736.569 449.091 736.95C448.446 736.569 447.801 736.187 447.075 735.806ZM452.881 738.952C453.285 739.142 453.768 739.333 454.171 739.523C453.768 739.429 453.285 739.142 452.881 738.952ZM455.219 739.999C455.945 740.285 456.59 740.475 457.315 740.76C456.59 740.57 455.945 740.285 455.219 739.999ZM479.019 730.238C478.618 730.623 478.217 731.104 477.897 731.776L478.22 732.159C478.059 731.968 477.897 731.776 477.897 731.776C478.297 731.104 478.618 730.623 479.019 730.238C480.223 729.084 481.751 728.599 483.443 728.786C481.836 730.038 480.15 731.29 478.544 732.637C478.544 732.637 478.382 732.446 478.301 732.254L478.544 732.637C480.15 731.386 481.837 730.133 483.443 728.786C481.751 728.599 480.303 728.988 479.019 730.238ZM491.617 717.06C491.776 716.389 491.855 715.717 491.933 715.046C491.854 715.621 491.776 716.389 491.617 717.06ZM492.01 713.99C492.009 713.607 492.008 713.319 492.007 712.936C492.008 713.223 492.009 713.607 492.01 713.99Z" fill="#E7510E"/>
<path d="M915.132 220.408C921.136 209.456 918.856 201.216 909.177 195.781C899.095 190.059 888.933 184.337 877.342 185.045C867.985 179.417 860.792 170.521 853.198 162.298C836.164 147.68 815.874 147.169 796.22 144.163C793.402 144.076 790.503 143.989 787.685 143.902C785.746 141.702 783.807 139.503 781.868 137.399C782.025 136.152 782.182 135.001 782.42 133.753C790.044 126.153 791.222 116.752 787.324 106.311C782.452 92.9969 773.493 86.0248 761.969 82.3213C749.477 78.3332 737.089 81.633 724.611 81.9602C693.617 82.6338 662.542 83.02 631.546 83.0224C599.1 83.0293 566.731 81.5017 534.745 74.123C507.674 67.8796 497.058 46.0486 506.14 15.7162C506.942 14.5629 507.743 13.3137 508.464 12.1607C515.78 8.97286 523.015 5.68941 530.332 2.5016C521.065 -0.0582574 512.936 0.830586 508.383 12.065C507.339 12.9314 506.215 13.7981 505.17 14.5685C500.665 15.5418 498.666 19.7676 496.747 24.0891C485.793 48.0023 497.645 78.6519 522.635 89.0255C563.669 106.157 606.353 110.721 649.426 110.68C654.016 111.049 658.686 111.322 663.276 111.595C676.242 112.705 689.366 113.047 702.253 114.924C724.162 118.115 735.237 132.465 732.807 153.09C726.141 158.194 728.732 162.885 733.814 166.033C741.155 170.709 738.108 174.65 733.936 178.979C722.5 177.96 710.982 176.175 699.549 176.019C679.903 175.698 675.09 181.179 672.026 205.067C671.902 216.863 664.891 214.68 658.772 214.412C642.901 211.201 631.517 226.293 616.546 227.683C626.303 232.447 632.697 243.168 643.326 243.517C656.611 243.955 668.465 249.863 680.161 256.826C690.243 262.836 699.455 273.451 712.403 269.191C714.095 269.473 715.787 269.851 717.479 270.134C720.943 270.986 724.409 272.317 727.872 272.69C736.007 273.719 740.849 277.444 740.563 288.665C740.348 297.2 744.797 303.611 751.569 306.659C756.004 308.658 759.715 311.044 759.253 317.662C759.017 319.389 758.861 321.116 758.625 322.747C755.41 324.579 755.269 330.813 750.76 330.827C750.505 326.513 756.038 319.59 747.743 318.658C734.373 317.07 721.322 314.138 707.561 316.1C682.292 319.728 656.544 324.509 632.66 307.611C628.625 304.747 623.712 303.995 619.532 305.926C603.694 313.265 587.745 310.63 571.716 307.996C566.873 304.175 561.475 302.85 555.837 302.196C539.072 296.304 522.307 290.22 505.543 284.519C490.31 279.293 474.282 277.138 458.909 278.433C438.063 280.226 417.774 280.194 397.308 274.984C384.175 271.67 370.964 269.41 358.19 278.081C350.076 283.573 340.664 285.713 331.819 289.193C324.823 291.9 314.668 288.672 310.679 300.097C309.883 302.976 309.168 305.855 308.372 308.735C311.919 310.354 315.386 311.877 318.934 313.496C315.467 311.877 311.919 310.354 308.372 308.735C300.604 321.705 288.699 325.195 277.177 322.355C245.915 314.495 213.878 316.226 182.617 309.133C159.253 303.837 136.066 303.815 116.08 323.057C102.252 329.047 87.5998 329.285 73.2765 331.632C64.1864 333.962 54.3531 330.445 44.3081 336.327C51.6529 342.153 58.6468 338.871 64.9334 341.057C66.7101 342.777 68.4871 344.593 70.2637 346.314C82.4488 355.194 95.894 355.247 109.252 353.287C125.749 350.741 142.158 346.278 158.837 350.445C168.264 352.812 177.604 353.07 187.1 351.889C189.112 351.595 191.124 351.301 193.055 351.007C213.891 345.955 234.356 350.876 254.818 354.743C255.865 354.74 256.911 354.833 257.958 354.829C277.842 354.191 295.022 364.302 312.043 374.605C312.851 375.657 313.74 376.709 314.548 377.665C316.899 382.74 320.929 384.262 325.439 384.823C327.377 386.543 329.315 388.359 331.253 390.079C343.506 394.931 355.835 398.536 368.873 397.152C387.08 401.026 405.287 404.613 420.528 387.015C424.302 383.838 427.995 380.662 431.769 377.486C437.308 372.481 443.42 370.16 450.426 370.714C457.19 371.172 463.708 370.192 469.246 364.804C487.898 356.498 507.499 368.231 526.397 361.267C528.487 360.493 531.955 362.304 533.893 364.216C550.611 380.561 568.768 393.929 588.765 403.839C589.088 404.03 588.771 405.757 588.776 407.196C582.67 411.147 575.9 409.059 569.379 409.079C558.43 409.018 547.722 408.956 538.977 418.669C540.989 418.471 543.082 418.369 545.095 418.362C543.082 418.369 541.07 418.567 538.977 418.669C535.201 421.271 531.102 423.297 528.701 428.004C526.126 428.396 523.552 428.883 520.977 429.275C499.155 428.002 492.161 431.476 485.37 447.992C493.089 444.707 500.82 445.546 507.406 440.538C528.976 438.456 550.238 440.882 571.427 445.418C584.236 448.158 596.889 452.146 610.087 450.282C616.443 449.207 622.8 448.228 629.157 447.153C636.543 440.512 646.752 435.589 645.18 422.073C643.608 408.844 634.173 404.079 624.498 399.698C614.985 395.413 605.311 391.416 596.593 384.347C586.342 376.037 569.755 375.322 563.21 367.863C551.575 354.762 537.659 358.45 526.443 350.526C524.264 348.903 522.405 346.607 520.467 344.599C538.77 353.268 557.037 350.525 575.536 344.808C601.112 336.768 627.738 354.904 653.135 341.014C654.257 339.476 655.38 338.226 656.585 337.263C657.388 336.589 658.272 336.107 659.156 335.625C658.271 336.011 657.388 336.589 656.585 337.263C655.38 338.226 654.176 339.476 653.135 341.014L653.215 341.014C651.37 343.129 649.606 345.245 647.76 347.264L647.68 347.265C638.748 348.732 629.896 350.102 620.964 351.569C619.837 351.477 618.71 351.384 617.663 351.292C615.9 353.887 614.057 356.578 612.294 359.172C615.192 359.355 618.091 359.538 620.99 359.624C623.647 359.616 626.304 359.607 629.041 359.695C630.891 359.113 632.741 358.628 634.672 358.047C637.167 358.039 639.663 357.935 642.159 357.927C647.403 361.458 653.195 360.098 658.751 360.272C664.952 361.019 671.236 362.054 677.436 362.322C692.09 362.947 707.076 366.256 720.731 356.527C723.624 354.792 726.517 352.961 729.41 351.225C724.225 341.172 713.697 347.151 707.317 340.746C713.697 347.056 724.225 341.172 729.41 351.225C736.574 350.915 743.738 350.604 750.822 350.39C756.216 350.373 761.691 350.356 767.085 350.339C774.178 353.001 781.346 353.842 788.752 353.339C793.34 353.036 798.008 352.734 802.596 352.432C818.305 355.451 833.733 346.1 849.53 351.324C850.98 351.799 854.194 349.487 854.912 347.567C856.349 343.822 853.604 341.242 850.945 340.675C832.576 336.705 818.039 322.367 801.108 314.749C790.063 309.797 781.264 302.537 773.424 292.684C769.624 287.901 768.239 282.535 769.508 276.49C770.856 269.965 775.685 269.47 780.272 268.88C787.917 267.897 796.455 269.212 802.965 265.451C827.636 251.372 853.702 245.344 880.667 243.532C884.771 242.752 888.307 240.727 891.436 237.553C900.542 240.017 909.567 242.674 918.567 237.179C924.441 236.201 930.891 239.058 937.472 232.42C929.245 227.843 922.229 224.125 915.132 220.408ZM406.113 309.48C407.398 308.517 408.764 307.841 410.05 307.262C408.684 307.841 407.398 308.517 406.113 309.48ZM359.679 341.177C360.08 340.792 360.481 340.407 360.963 340.118C360.401 340.408 359.999 340.697 359.679 341.177ZM386.91 347.324C387.234 347.803 387.557 348.185 387.8 348.664C387.557 348.185 387.234 347.707 386.91 347.324ZM414.721 358.456L414.721 358.36C414.721 358.456 414.721 358.456 414.721 358.456ZM412.033 348.587C413.164 349.83 413.975 351.554 414.384 353.758C413.894 351.554 413.084 349.926 412.033 348.587ZM412.014 317.037C411.127 316.752 410.321 316.371 409.434 316.086C410.321 316.467 411.208 316.752 412.014 317.037C420.638 319.982 430.296 319.089 438.839 322.13C440.703 325.864 443.448 328.349 446.592 329.682C443.448 328.349 440.703 325.769 438.839 322.13C430.296 319.089 420.638 319.982 412.014 317.037ZM449.879 325.068C459.71 328.01 469.541 330.856 479.92 328.713C469.541 330.76 459.71 327.914 449.879 325.068ZM346.371 308.231C347.255 307.94 348.22 307.553 349.105 307.263C348.22 307.553 347.336 307.94 346.371 308.231ZM332.451 387.007C336.294 380.473 342.562 376.713 346.325 370.18C342.562 376.618 336.294 380.473 332.451 387.007ZM861.787 230.454C862.109 230.453 862.431 230.452 862.753 230.451C862.35 230.452 862.109 230.453 861.787 230.454C853.44 238.728 843.21 237.13 833.471 238.024C843.13 237.13 853.359 238.728 861.787 230.454ZM715.093 228.714C715.093 228.809 715.174 228.809 715.174 228.905C715.093 228.809 715.093 228.809 715.093 228.714ZM718.154 229.183C717.511 229.665 716.869 230.146 716.226 230.532C716.949 230.146 717.511 229.665 718.154 229.183ZM728.227 232.028C733.936 229.9 741.592 232.274 745.283 228.426C741.511 232.274 733.855 229.901 728.227 232.028ZM758.391 198.273L758.551 198.08C758.551 198.08 758.471 198.177 758.391 198.273ZM747.654 214.418C749.513 216.617 751.291 218.817 753.15 221.017C751.291 218.817 749.432 216.618 747.654 214.418C744.898 208.481 740.141 206.386 735.631 206.017C740.141 206.386 744.817 208.481 747.654 214.418ZM685.099 214.712L685.584 215.286C685.665 215.285 685.099 214.712 685.099 214.712ZM883.407 219.07C883.167 219.55 883.008 220.126 882.768 220.606C883.008 220.126 883.168 219.646 883.407 219.07ZM885.326 214.652C885.246 214.749 885.165 214.845 885.166 215.037C885.246 214.94 885.326 214.748 885.326 214.652ZM884.325 203.723C884.648 204.106 884.972 204.68 885.216 205.447C884.972 204.776 884.649 204.202 884.325 203.723ZM671.965 236.522C670.678 236.814 669.389 236.626 668.581 235.67C669.389 236.626 670.677 236.718 671.965 236.522C674.055 235.652 676.71 235.069 677.427 232.573C676.791 235.068 674.055 235.556 671.965 236.522ZM690.254 240.971C696.496 254.377 707.761 252.232 717.828 253.446C707.761 252.232 696.577 254.377 690.254 240.971ZM693.718 343.091C690.337 343.102 687.034 342.633 683.65 341.78C686.954 342.729 690.337 343.102 693.718 343.091ZM663.096 334.174C662.211 334.273 661.246 334.563 660.361 334.854C661.246 334.563 662.131 334.369 663.096 334.174ZM750.287 333.993C753.525 339.353 759.567 340.677 763.686 344.787C759.567 340.581 753.525 339.353 750.287 333.993ZM877.324 230.309C877.402 229.254 877.399 228.295 877.476 227.24C877.398 228.199 877.402 229.254 877.324 230.309ZM885.646 214.172C891.459 219.14 898.231 222.283 904.603 226.003C898.151 222.188 891.458 219.044 885.646 214.172Z" fill="#E7510E"/>
<path d="M569.363 353.171C584.088 350.535 597.095 364.686 612.051 358.981C613.814 356.386 615.658 353.695 617.421 351.1C601.39 348.274 585.273 343.339 569.363 353.171Z" fill="#E7510E"/>
<path d="M504.842 571.159C510.234 570.566 519.181 574.086 519.559 566.317C520.013 557.109 510.61 562.126 505.692 559.936C504.482 559.364 503.114 559.464 501.744 559.277C497.871 556.508 494.663 560.354 491.042 560.845C492.745 564.868 494.529 568.986 496.233 573.008C499.295 573.765 502.273 573.66 504.842 571.159Z" fill="#E7510E"/>
</svg>
